<?xml version="1.0" encoding="utf-8"?>
<!-- Generator: Adobe Illustrator 16.0.4, SVG Export Plug-In . SVG Version: 6.00 Build 0)  -->
<!DOCTYPE svg PUBLIC "-//W3C//DTD SVG 1.1//EN" "http://www.w3.org/Graphics/SVG/1.1/DTD/svg11.dtd">
<svg version="1.1" id="Layer_1" xmlns="http://www.w3.org/2000/svg" xmlns:xlink="http://www.w3.org/1999/xlink" x="0px" y="0px"
	 width="32px" height="32px" viewBox="0 0 32 32" enable-background="new 0 0 32 32" xml:space="preserve">
<path fill="#C7B299" d="M32,30c0,1.1-0.9,2-2,2H2c-1.1,0-2-0.9-2-2V2c0-1.1,0.9-2,2-2h28c1.1,0,2,0.9,2,2V30z"/>
<rect y="5" fill="#454547" width="32" height="3"/>
<rect y="8" fill="#FFFFFF" width="32" height="8"/>
<rect y="8" fill="#B3B3B3" width="2" height="4"/>
<rect x="4" y="8" fill="#B3B3B3" width="2" height="4"/>
<rect x="8" y="8" fill="#B3B3B3" width="2" height="4"/>
<rect x="12" y="8" fill="#B3B3B3" width="2" height="4"/>
<rect x="16" y="8" fill="#B3B3B3" width="2" height="4"/>
<rect x="20" y="8" fill="#B3B3B3" width="2" height="4"/>
<rect x="24" y="8" fill="#B3B3B3" width="2" height="4"/>
<rect x="28" y="8" fill="#B3B3B3" width="2" height="4"/>
<rect x="2" y="12" fill="#666666" width="2" height="4"/>
<rect x="6" y="12" fill="#666666" width="2" height="4"/>
<rect x="10" y="12" fill="#666666" width="2" height="4"/>
<rect x="14" y="12" fill="#666666" width="2" height="4"/>
<rect x="18" y="12" fill="#666666" width="2" height="4"/>
<rect x="22" y="12" fill="#666666" width="2" height="4"/>
<rect x="26" y="12" fill="#666666" width="2" height="4"/>
<rect x="30" y="12" fill="#666666" width="2" height="4"/>
<rect y="16" fill="#454547" width="32" height="3"/>
<rect y="8" opacity="0.2" fill="#333333" width="32" height="8"/>
<path fill="#736357" d="M6,13c-2.2,0-4,1.8-4,4v10c0,2.2,1.8,4,4,4s4-1.8,4-4V17C10,14.8,8.2,13,6,13z M8,27c0,1.1-0.9,2-2,2
	s-2-0.9-2-2v-4c0-1.1,0.9-2,2-2s2,0.9,2,2V27z M6,19c-1.1,0-2-0.9-2-2s0.9-2,2-2s2,0.9,2,2S7.1,19,6,19z"/>
<path fill="#FFFFFF" d="M6,11c-2.2,0-4,1.8-4,4v10c0,2.2,1.8,4,4,4s4-1.8,4-4V15C10,12.8,8.2,11,6,11z M8,25c0,1.1-0.9,2-2,2
	s-2-0.9-2-2v-4c0-1.1,0.9-2,2-2s2,0.9,2,2V25z M6,17c-1.1,0-2-0.9-2-2s0.9-2,2-2s2,0.9,2,2S7.1,17,6,17z"/>
</svg>
