<?xml version="1.0" encoding="utf-8"?>
<!-- Generator: Adobe Illustrator 16.0.4, SVG Export Plug-In . SVG Version: 6.00 Build 0)  -->
<!DOCTYPE svg PUBLIC "-//W3C//DTD SVG 1.1//EN" "http://www.w3.org/Graphics/SVG/1.1/DTD/svg11.dtd">
<svg version="1.1" id="Layer_1" xmlns="http://www.w3.org/2000/svg" xmlns:xlink="http://www.w3.org/1999/xlink" x="0px" y="0px"
	 width="32px" height="32px" viewBox="0 0 32 32" enable-background="new 0 0 32 32" xml:space="preserve">
<circle fill="#EA7F00" cx="16" cy="16" r="16"/>
<path fill="#FFFFFF" d="M23,16.074c0,2.972-1.316,5.63-3.381,7.462l1.426,1.425C23.471,22.768,25,19.604,25,16.074
	c0-3.609-1.6-6.837-4.122-9.035L19.457,8.46C21.619,10.294,23,13.022,23,16.074z"/>
<path fill="#FFFFFF" d="M17.662,16.084c0,1.539-0.547,2.945-1.446,4.061l1.417,1.416c1.258-1.479,2.029-3.381,2.029-5.477
	c0-2.175-0.832-4.143-2.176-5.644l-1.408,1.408C17.062,12.986,17.662,14.465,17.662,16.084z"/>
<path fill="#FFFFFF" d="M9,13H8c-1.104,0-2,0.896-2,2v2c0,1.104,0.896,2,2,2h1l5,5V8L9,13z"/>
</svg>
