<?xml version="1.0" encoding="utf-8"?>
<!-- Generator: Adobe Illustrator 16.0.4, SVG Export Plug-In . SVG Version: 6.00 Build 0)  -->
<!DOCTYPE svg PUBLIC "-//W3C//DTD SVG 1.1//EN" "http://www.w3.org/Graphics/SVG/1.1/DTD/svg11.dtd">
<svg version="1.1" id="Layer_1" xmlns="http://www.w3.org/2000/svg" xmlns:xlink="http://www.w3.org/1999/xlink" x="0px" y="0px"
	 width="32px" height="32px" viewBox="0 0 32 32" enable-background="new 0 0 32 32" xml:space="preserve">
<path fill="#E54545" d="M7,12c0-1.657,1.343-3,3-3h15V2.272C25,1.019,23.982,0,22.727,0H8L0,8v14.727C0,23.982,1.018,25,2.273,25H7
	V12z"/>
<polygon opacity="0.4" fill="#FFFFFF" points="8,0 8,8 0,8 "/>
<path fill="#BF1717" d="M32,30c0,1.105-0.895,2-2,2H11c-1.104,0-2-0.895-2-2V13c0-1.104,0.896-2,2-2h19c1.105,0,2,0.896,2,2V30z"/>
<path fill="#FFFFFF" d="M24.967,20.242l-7.875-4.666c-0.088-0.051-0.184-0.076-0.279-0.076c-0.099,0-0.196,0.025-0.283,0.078
	c-0.173,0.105-0.279,0.295-0.279,0.506v9.334c0,0.207,0.106,0.398,0.279,0.504C16.617,25.975,16.714,26,16.813,26
	c0.095,0,0.191-0.025,0.279-0.078l7.875-4.664c0.174-0.105,0.283-0.299,0.283-0.508C25.25,20.539,25.141,20.346,24.967,20.242z"/>
<rect x="28" y="26" fill="#FFFFFF" width="2" height="2"/>
<rect x="28" y="22" fill="#FFFFFF" width="2" height="2"/>
<rect x="28" y="18" fill="#FFFFFF" width="2" height="2"/>
<rect x="28" y="14" fill="#FFFFFF" width="2" height="2"/>
<rect x="11" y="26" fill="#FFFFFF" width="2" height="2"/>
<rect x="11" y="22" fill="#FFFFFF" width="2" height="2"/>
<rect x="11" y="18" fill="#FFFFFF" width="2" height="2"/>
<rect x="11" y="14" fill="#FFFFFF" width="2" height="2"/>
</svg>
