<?xml version="1.0" encoding="utf-8"?>
<!-- Generator: Adobe Illustrator 16.0.4, SVG Export Plug-In . SVG Version: 6.00 Build 0)  -->
<!DOCTYPE svg PUBLIC "-//W3C//DTD SVG 1.1//EN" "http://www.w3.org/Graphics/SVG/1.1/DTD/svg11.dtd">
<svg version="1.1" id="Layer_1" xmlns="http://www.w3.org/2000/svg" xmlns:xlink="http://www.w3.org/1999/xlink" x="0px" y="0px"
	 width="32px" height="32px" viewBox="0 0 32 32" enable-background="new 0 0 32 32" xml:space="preserve">
<path fill="#999999" d="M29,2h-6c-1.1,0-2,0.9-2,2v1H3C1.9,5,1,5.9,1,7v6h30V4C31,2.9,30.1,2,29,2z"/>
<path fill="#CCCCCC" d="M29,25c0,1.1-0.9,2-2,2H5c-1.1,0-2-0.9-2-2V10c0-1.1,0.9-2,2-2h22c1.1,0,2,0.9,2,2V25z"/>
<path fill="#FFFFFF" d="M29,26c0,1.1-0.9,2-2,2H5c-1.1,0-2-0.9-2-2V11c0-1.1,0.9-2,2-2h22c1.1,0,2,0.9,2,2V26z"/>
<path fill="#B3B3B3" d="M0,30c0,1.1,0.9,2,2,2h28c1.1,0,2-0.9,2-2V16H0V30z"/>
<path fill="#B3B3B3" d="M32,13c0-1.1-0.9-2-2-2H2c-1.1,0-2,0.9-2,2v13h32V13z"/>
</svg>
