<?xml version="1.0" encoding="utf-8"?>
<!-- Generator: Adobe Illustrator 16.0.4, SVG Export Plug-In . SVG Version: 6.00 Build 0)  -->
<!DOCTYPE svg PUBLIC "-//W3C//DTD SVG 1.1//EN" "http://www.w3.org/Graphics/SVG/1.1/DTD/svg11.dtd">
<svg version="1.1" id="Layer_1" xmlns="http://www.w3.org/2000/svg" xmlns:xlink="http://www.w3.org/1999/xlink" x="0px" y="0px"
	 width="32px" height="32px" viewBox="0 0 32 32" enable-background="new 0 0 32 32" xml:space="preserve">
<circle fill="#EA7F00" cx="20.5" cy="20.5" r="11.5"/>
<g>
	<polygon fill="#FFFFFF" points="19.475,25.975 16.053,22.553 16.053,18.447 19.475,15.026 	"/>
	<path fill="#FFFFFF" d="M25.631,20.551c0,2.033-0.898,3.852-2.312,5.105l0.976,0.975C25.953,25.13,27,22.966,27,20.551
		c0-2.47-1.096-4.678-2.82-6.182l-0.973,0.972C24.688,16.596,25.631,18.463,25.631,20.551z"/>
	<path fill="#FFFFFF" d="M21.979,20.559c0,1.053-0.373,2.016-0.987,2.776l0.969,0.97c0.86-1.013,1.39-2.313,1.39-3.746
		c0-1.488-0.568-2.836-1.488-3.861l-0.963,0.963C21.568,18.438,21.979,19.449,21.979,20.559z"/>
	<path fill="#FFFFFF" d="M16.053,18.447h-0.685l0,0c-0.755,0-1.368,0.613-1.368,1.367v1.369c0,0.756,0.613,1.368,1.368,1.368l0,0
		h0.685V18.447z"/>
</g>
<path fill="#FF9D33" d="M7,20.5C7,13.043,13.043,7,20.5,7c1.58,0,3.091,0.286,4.5,0.784V2.272C25,1.019,23.982,0,22.727,0H8L0,8
	v14.729C0,23.982,1.018,25,2.273,25h5.511C7.286,23.591,7,22.08,7,20.5z"/>
<polygon opacity="0.4" fill="#FFFFFF" enable-background="new    " points="8,0 8,8 0,8 "/>
</svg>
