<?xml version="1.0" encoding="utf-8"?>
<!-- Generator: Adobe Illustrator 16.0.4, SVG Export Plug-In . SVG Version: 6.00 Build 0)  -->
<!DOCTYPE svg PUBLIC "-//W3C//DTD SVG 1.1//EN" "http://www.w3.org/Graphics/SVG/1.1/DTD/svg11.dtd">
<svg version="1.1" id="Layer_1" xmlns="http://www.w3.org/2000/svg" xmlns:xlink="http://www.w3.org/1999/xlink" x="0px" y="0px"
	 width="32px" height="32px" viewBox="0 0 32 32" enable-background="new 0 0 32 32" xml:space="preserve">
<path fill="#EFA91D" d="M30,0H2C0.896,0,0,0.896,0,2v28c0,1.105,0.896,2,2,2h22l8-8V2C32,0.896,31.105,0,30,0z"/>
<rect x="19" y="5" fill="#FFFFFF" width="9" height="2"/>
<rect x="19" y="10" fill="#FFFFFF" width="9" height="2"/>
<rect x="19" y="15" fill="#FFFFFF" width="9" height="2"/>
<rect x="16" y="5" fill="#FFFFFF" width="2" height="2"/>
<rect x="16" y="10" fill="#FFFFFF" width="2" height="2"/>
<rect x="16" y="15" fill="#FFFFFF" width="2" height="2"/>
<polygon opacity="0.4" fill="#FFFFFF" points="24,32 24,24 32,24 "/>
<path fill="#FFFFFF" d="M9,11V5c-3.313,0-6,2.687-6,6s2.687,6,6,6c2.403,0,4.471-1.417,5.429-3.457L9,11z"/>
</svg>
