<?xml version="1.0" encoding="utf-8"?>
<!-- Generator: Adobe Illustrator 16.0.4, SVG Export Plug-In . SVG Version: 6.00 Build 0)  -->
<!DOCTYPE svg PUBLIC "-//W3C//DTD SVG 1.1//EN" "http://www.w3.org/Graphics/SVG/1.1/DTD/svg11.dtd">
<svg version="1.1" id="Layer_1" xmlns="http://www.w3.org/2000/svg" xmlns:xlink="http://www.w3.org/1999/xlink" x="0px" y="0px"
	 width="32px" height="32px" viewBox="0 0 32 32" enable-background="new 0 0 32 32" xml:space="preserve">
<path fill="#BC6683" d="M30,0H2C0.896,0,0,0.896,0,2v28c0,1.105,0.896,2,2,2h22l8-8V2C32,0.896,31.105,0,30,0z"/>
<polygon opacity="0.4" fill="#FFFFFF" points="24,32 24,24 32,24 "/>
<g>
	<path fill="#FFFFFF" d="M5.832,15.869v3.51H3.891V9.701h3.702c1.112,0,1.987,0.283,2.625,0.851s0.957,1.314,0.957,2.24
		s-0.319,1.671-0.957,2.233s-1.513,0.844-2.625,0.844H5.832z M5.832,14.374h1.761c0.541,0,0.951-0.147,1.23-0.442
		c0.279-0.294,0.418-0.67,0.418-1.126c0-0.466-0.139-0.85-0.416-1.153s-0.688-0.456-1.233-0.456H5.832V14.374z"/>
	<path fill="#FFFFFF" d="M12.565,19.379V9.701h3.376c1.184,0,2.158,0.378,2.925,1.134c0.767,0.755,1.149,1.725,1.149,2.907v1.603
		c0,1.188-0.383,2.156-1.149,2.907s-1.741,1.127-2.925,1.127H12.565z M14.506,11.196v6.693h1.436c0.638,0,1.152-0.237,1.542-0.714
		s0.585-1.087,0.585-1.831v-1.615c0-0.74-0.195-1.348-0.585-1.821c-0.39-0.475-0.904-0.712-1.542-0.712H14.506z"/>
	<path fill="#FFFFFF" d="M27.228,15.357h-3.716v4.021h-1.94V9.701h6.335v1.495h-4.395v2.666h3.716V15.357z"/>
</g>
</svg>
