<?xml version="1.0" encoding="utf-8"?>
<!-- Generator: Adobe Illustrator 16.0.4, SVG Export Plug-In . SVG Version: 6.00 Build 0)  -->
<!DOCTYPE svg PUBLIC "-//W3C//DTD SVG 1.1//EN" "http://www.w3.org/Graphics/SVG/1.1/DTD/svg11.dtd">
<svg version="1.1" id="Layer_1" xmlns="http://www.w3.org/2000/svg" xmlns:xlink="http://www.w3.org/1999/xlink" x="0px" y="0px"
	 width="32px" height="32px" viewBox="0 0 32 32" enable-background="new 0 0 32 32" xml:space="preserve">
<path fill="#BC6683" d="M8,12c0-1.656,1.344-3,3-3h13V2.272C24,1.019,22.982,0,21.727,0H8L0,8v11.727C0,20.982,1.018,22,2.273,22H8
	V12z"/>
<polygon opacity="0.4" fill="#FFFFFF" points="8,0 8,8 0,8 "/>
<path fill="#5A98BA" d="M32,30c0,1.105-0.895,2-2,2H12c-1.104,0-2-0.895-2-2V13c0-1.104,0.896-2,2-2h18c1.105,0,2,0.896,2,2V30z"/>
<rect x="13" y="14" fill="#FFFFFF" width="16" height="1"/>
<rect x="13" y="17" fill="#FFFFFF" width="16" height="1"/>
<rect x="13" y="20" fill="#FFFFFF" width="9" height="1"/>
<polygon fill="#FFFFFF" points="32,24 32,32 24,32 "/>
<polygon opacity="0.4" fill="#FFFFFF" points="24,32 24,24 32,24 "/>
</svg>
