<?xml version="1.0" encoding="utf-8"?>
<!-- Generator: Adobe Illustrator 16.0.4, SVG Export Plug-In . SVG Version: 6.00 Build 0)  -->
<!DOCTYPE svg PUBLIC "-//W3C//DTD SVG 1.1//EN" "http://www.w3.org/Graphics/SVG/1.1/DTD/svg11.dtd">
<svg version="1.1" id="Layer_1" xmlns="http://www.w3.org/2000/svg" xmlns:xlink="http://www.w3.org/1999/xlink" x="0px" y="0px"
	 width="220.1px" height="18px" viewBox="0 0 220.1 18" enable-background="new 0 0 220.1 18" xml:space="preserve">
<path fill="#72759B" d="M74.2,13.7v-0.5l-1.7-0.7V0l-3.4,0.8v0.4l1.8,0.5v10.9l-1.7,0.7v0.5L74.2,13.7L74.2,13.7z M83,8.7
	c0-0.3,0-0.6-0.1-0.9c0-0.2,0-0.5-0.1-0.6c0-0.2-0.1-0.3-0.1-0.5c0-0.1-0.1-0.3-0.1-0.4c-0.3-0.6-0.7-1.1-1.2-1.5
	c-0.6-0.4-1.2-0.5-2-0.5c-0.6,0-1.1,0.1-1.6,0.3c-0.5,0.2-0.9,0.5-1.3,0.9c-0.5,0.4-0.8,1-1.1,1.6C75.1,7.8,75,8.5,75,9.3
	c0,0.7,0.1,1.3,0.3,1.9c0.2,0.6,0.5,1.1,0.9,1.5c0.4,0.4,0.8,0.7,1.4,1c0.5,0.2,1.1,0.3,1.7,0.3c0.3,0,0.7,0,1-0.1
	c0.4,0,0.8-0.1,1.3-0.3c0.1,0,0.3-0.1,0.4-0.1c0.1,0,0.3-0.1,0.4-0.1c0.2,0,0.3-0.1,0.5-0.1l-0.1-0.5c-0.4,0.1-0.8,0.1-1.2,0.2
	c-0.4,0-0.8,0.1-1,0.1c-0.7,0-1.3-0.1-1.7-0.2c-0.4-0.2-0.8-0.4-1.2-0.8c-0.4-0.4-0.6-0.8-0.7-1.3c-0.1-0.5-0.2-1.1-0.2-1.8H83V8.7z
	 M76.8,8.2c0.1-1,0.4-1.8,0.8-2.3C78,5.3,78.5,5,79.2,5c0.4,0,0.6,0.1,0.9,0.2c0.2,0.1,0.4,0.3,0.6,0.5c0.2,0.2,0.3,0.5,0.4,0.8
	c0.1,0.3,0.1,0.8,0.1,1.3L76.8,8.2z M93,13.2v-0.4l-1.1-0.3c-0.2-0.1-0.3-0.1-0.4-0.1c-0.1,0-0.1-0.1-0.2-0.1c0,0-0.1-0.2-0.1-0.5
	V6.5c0-0.4-0.1-0.8-0.2-1c0-0.3-0.2-0.5-0.4-0.7c-0.2-0.2-0.5-0.3-0.9-0.4c-0.3-0.1-0.7-0.1-1.1-0.1c-0.3,0-0.6,0-1,0.1
	c-0.3,0.1-0.7,0.1-1.1,0.2c-0.1,0-0.3,0.1-0.5,0.1s-0.4,0.1-0.7,0.2v1.7h1L87.1,5h1.2c0.2,0,0.4,0.1,0.5,0.1
	c0.4,0.1,0.6,0.3,0.7,0.5c0.1,0.2,0.2,0.5,0.2,1v2.2l-0.6,0.1c-0.5,0-1,0.1-1.5,0.2s-0.9,0.1-1.2,0.2c-1.4,0.3-2.1,1.1-2.1,2.2
	c0,0.7,0.2,1.3,0.7,1.7c0.5,0.4,1.1,0.6,1.9,0.6h0.5c0.2,0,0.3-0.1,0.4-0.1s0.3-0.1,0.4-0.2c0.1-0.1,0.3-0.1,0.5-0.2
	c0.2-0.1,0.4-0.2,0.5-0.2c0.1,0,0.3-0.1,0.4-0.2c0.1,0.6,0.4,0.9,1,0.9H91c0.2,0,0.4-0.1,0.7-0.2L93,13.2L93,13.2z M89.7,12.5
	c-0.4,0.1-0.7,0.2-0.9,0.2s-0.5,0.1-0.8,0.1c-0.6,0-1.1-0.2-1.4-0.4c-0.4-0.3-0.5-0.7-0.5-1.2c0-0.8,0.4-1.2,1.3-1.5
	c0.4-0.1,0.8-0.2,1.1-0.2c0.4-0.1,0.8-0.1,1.2-0.2V12.5L89.7,12.5z M100.8,6.6V4.5c-0.1,0-0.3-0.1-0.5-0.1s-0.3-0.1-0.5-0.1
	c-0.3,0-0.7,0.1-1.1,0.3c-0.5,0.2-1.1,0.5-1.9,0.9V4.2l-3.2,0.7v0.4l1.7,0.5v6.8l-1.7,0.7v0.5h5.3v-0.5l-2.1-0.7V5.8
	c0.2-0.1,0.5-0.2,0.8-0.2c0.3-0.1,0.5-0.1,0.8-0.1h0.5l0.6,1h1.3V6.6z M112.3,13.7v-0.5l-1.7-0.7V7.3c0-0.5,0-0.9-0.1-1.3
	c-0.1-0.3-0.3-0.6-0.5-0.9c-0.3-0.3-0.6-0.5-0.9-0.6s-0.7-0.2-1.1-0.2h-0.6c-0.2,0-0.3,0-0.4,0.1c-0.1,0-0.3,0.1-0.5,0.1
	c-0.2,0.1-0.4,0.1-0.7,0.3c-0.2,0.1-0.4,0.1-0.5,0.2c-0.2,0.1-0.4,0.2-0.6,0.2v-1l-3.2,0.7v0.4l1.7,0.5v6.8l-1.7,0.7v0.5h4.7v-0.5
	l-1.5-0.7V5.7c0.2,0,0.5-0.1,0.9-0.1h0.9c0.4,0,0.7,0,1,0.1c0.3,0,0.6,0.1,0.8,0.2c0.6,0.3,0.9,0.9,0.9,1.8v5l-1.6,0.7v0.5h4.7V13.7
	z M115.4,0c-0.7,0-1.1,0.3-1.1,1c0,0.6,0.4,1,1.1,1c0.7,0,1.1-0.3,1.1-1S116.1,0,115.4,0 M117.8,13.7v-0.5l-1.7-0.7V4.2L113,4.9v0.4
	l1.7,0.5v6.8l-1.7,0.7v0.5L117.8,13.7L117.8,13.7z M129.5,13.7v-0.5l-1.7-0.7V7.3c0-0.5,0-0.9-0.1-1.3c-0.1-0.3-0.3-0.6-0.5-0.9
	c-0.3-0.3-0.6-0.5-0.9-0.6s-0.7-0.2-1.1-0.2h-0.6c-0.2,0-0.3,0-0.4,0.1c-0.1,0-0.3,0.1-0.5,0.1c-0.2,0.1-0.4,0.1-0.7,0.3
	c-0.2,0.1-0.4,0.1-0.5,0.2c-0.2,0.1-0.4,0.2-0.6,0.2v-1l-3.2,0.7v0.4l1.7,0.5v6.8l-1.6,0.7v0.5h4.7v-0.5l-1.5-0.7V5.7
	c0.2,0,0.5-0.1,0.9-0.1h0.9c0.4,0,0.7,0,1,0.1c0.3,0,0.6,0.1,0.8,0.2c0.6,0.3,0.9,0.9,0.9,1.8v5l-1.6,0.7v0.5h4.6V13.7z M139.6,5.7
	V4.1l-3.4,0.6c-0.3-0.2-0.7-0.3-1-0.4c-0.3-0.1-0.7-0.1-1.1-0.1c-0.5,0-0.9,0.1-1.4,0.3c-0.4,0.2-0.8,0.4-1.1,0.7
	c-0.3,0.3-0.6,0.6-0.8,1c-0.2,0.4-0.3,0.8-0.3,1.3c0,0.4,0.1,0.8,0.3,1.2c0.2,0.4,0.5,0.7,0.8,1c0.2,0.1,0.3,0.2,0.5,0.3
	s0.4,0.2,0.7,0.3l-0.6,0.6c-0.2,0.2-0.4,0.4-0.6,0.7c-0.3,0.4-0.5,0.7-0.5,1c0,0.4,0.3,0.8,0.8,1.2c-0.5,0.2-0.9,0.5-1.3,0.7
	c-0.5,0.4-0.8,0.8-0.8,1.2c0,0.3,0.1,0.6,0.3,0.8c0.2,0.3,0.5,0.5,0.8,0.7c0.4,0.3,0.9,0.5,1.4,0.6c0.5,0.1,1.1,0.2,1.8,0.2
	c0.5,0,1.1-0.1,1.7-0.3s1.1-0.4,1.5-0.8c1-0.7,1.5-1.6,1.5-2.6c0-0.5-0.1-0.9-0.4-1.2c-0.2-0.2-0.4-0.4-0.7-0.4
	c-0.3-0.1-0.7-0.1-1.2-0.1H134c-0.5,0-0.9-0.1-1.2-0.2c-0.2-0.1-0.3-0.3-0.3-0.5c0-0.1,0.1-0.3,0.2-0.6c0.2-0.3,0.4-0.5,0.6-0.8
	c0.2,0.1,0.4,0.1,0.6,0.1h0.5c0.5,0,1-0.1,1.4-0.2c0.4-0.2,0.8-0.4,1.1-0.6c0.3-0.3,0.6-0.6,0.7-1c0.2-0.4,0.3-0.8,0.3-1.2
	c0-0.2,0-0.5-0.1-0.7c-0.1-0.2-0.2-0.5-0.3-0.7c-0.1-0.2-0.2-0.4-0.4-0.5c-0.2-0.2-0.3-0.3-0.6-0.5L139.6,5.7z M136.2,8.6
	c-0.1,0.3-0.2,0.5-0.4,0.7c-0.2,0.2-0.4,0.4-0.6,0.5c-0.2,0.1-0.5,0.2-0.8,0.2c-0.2,0-0.4,0-0.5-0.1c-0.2-0.1-0.3-0.1-0.5-0.2
	c-0.4-0.2-0.6-0.5-0.8-0.9c-0.2-0.4-0.3-0.9-0.3-1.4c0-0.3,0-0.6,0.1-0.9c0.1-0.3,0.2-0.5,0.4-0.7c0.2-0.2,0.4-0.4,0.6-0.5
	c0.2-0.1,0.5-0.2,0.8-0.2c0.2,0,0.5,0,0.8,0.1c0.3,0.1,0.5,0.3,0.7,0.5c0.2,0.2,0.4,0.6,0.6,0.9c0.1,0.4,0.2,0.8,0.2,1.2
	C136.4,8,136.3,8.3,136.2,8.6 M137.4,15.9c-0.2,0.3-0.4,0.5-0.7,0.7c-0.3,0.2-0.7,0.4-1.1,0.5c-0.4,0.1-0.9,0.2-1.3,0.2
	s-0.8,0-1.2-0.1c-0.4-0.1-0.7-0.2-0.9-0.4c-0.3-0.2-0.5-0.4-0.6-0.6c-0.2-0.2-0.2-0.5-0.2-0.7c0-0.1,0-0.2,0.1-0.4
	c0.1-0.1,0.1-0.3,0.2-0.4c0.1-0.1,0.2-0.3,0.3-0.4c0.1-0.1,0.2-0.2,0.4-0.3c0.2,0.1,0.3,0.1,0.4,0.1h4.1c0.2,0,0.4,0.1,0.5,0.2
	c0.1,0.1,0.3,0.2,0.3,0.4c0.1,0.2,0.1,0.3,0.1,0.5C137.7,15.3,137.6,15.6,137.4,15.9"/>
<path fill="#1B254F" d="M6.1,11.3c0-1.3-1.1-2-2.6-2.9c-1.6-0.9-2-1.3-2-2C1.4,5.7,2,5,3,5c0.9,0,1.5,0.4,2.1,1.2l0.8-0.6
	C5.3,4.7,4.4,4,3.1,4C1.4,4,0.3,5.1,0.3,6.5c0,1.1,0.7,1.7,2.2,2.6c1.9,1.1,2.4,1.5,2.4,2.2c0,1-0.9,1.5-1.7,1.5
	c-1.1,0-2-0.7-2.4-1.4L0,12c0.4,0.8,1.4,1.9,3.1,1.9C4.6,13.9,6.1,13,6.1,11.3 M16.5,13.7V4.2h-1.1v4.1H9.6V4.2H8.5v9.5h1.1V9.3h5.8
	v4.4H16.5z M27.9,13.7l-4.3-9.5h-1.1l-4.3,9.5h1.2l1-2.3h5l1,2.3H27.9z M25.2,10.4H21l2.1-4.7L25.2,10.4z M36.4,7.1
	c0-1.3-1-2.9-3.1-2.9h-3.6v9.5h1.1v-3.5h2.5C35.3,10.2,36.4,8.7,36.4,7.1 M35.3,7.1c0,1.2-0.7,2-2,2h-2.5v-4h2.4
	C34.7,5.2,35.3,6.2,35.3,7.1 M39.8,4.2h-1.1v9.5h1.1V4.2z M51.4,13.7V4.2h-1.1V12L44,4.2h-1.1v9.5H44V5.9l6.3,7.8H51.4z M62.8,6.2V5
	c-1.3-0.7-2.5-1-3.7-1c-2.9,0-5.2,2.4-5.2,4.9c0,3,2.4,4.9,5,4.9c1.4,0,2.5-0.4,3.8-1V8.5h-3.9v1h2.8v2.7c-0.9,0.4-1.7,0.6-2.7,0.6
	c-2.2,0-3.9-1.6-3.9-3.9C55,7,56.5,5,59,5C60.5,5,62,5.7,62.8,6.2 M151.4,5.2v-1h-7v1h2.9v8.5h1.1V5.2H151.4z M162,9
	c0-2.9-2.5-4.9-5-4.9s-5,2-5,4.9c0,2.9,2.5,4.9,5,4.9S162,11.8,162,9 M160.9,9c0,2.2-1.7,3.9-3.8,3.9c-2.1,0-3.8-1.7-3.8-3.9
	s1.7-4,3.7-4C159.1,5,160.9,6.8,160.9,9 M173.1,6.2V5c-1.3-0.7-2.5-1-3.7-1c-2.9,0-5.1,2.4-5.1,4.9c0,3,2.4,4.9,5,4.9
	c1.4,0,2.5-0.4,3.8-1V8.5h-3.9v1h2.8v2.7c-0.9,0.4-1.7,0.6-2.7,0.6c-2.2,0-3.9-1.6-3.9-3.9c0-1.9,1.5-3.9,4-3.9
	C170.8,5,172.2,5.7,173.1,6.2 M182.4,13.7v-1h-5.2V9.3h4.3v-1h-4.3v-3h5.2v-1H176v9.5L182.4,13.7L182.4,13.7z M190.7,5.2v-1h-7v1
	h2.9v8.5h1.1V5.2H190.7z M200.6,13.7V4.2h-1.1v4.1h-5.8V4.2h-1.1v9.5h1.1V9.3h5.8v4.4H200.6z M210.1,13.7v-1h-5.2V9.3h4.3v-1h-4.3
	v-3h5.2v-1h-6.3v9.5L210.1,13.7L210.1,13.7z M220,13.7l-3.1-4.1c1.4-0.3,2.2-1.4,2.2-2.6s-0.8-2.8-3.2-2.8h-3.2v9.5h1.1v-4h1.9l3,4
	H220z M217.9,7c0,0.9-0.6,1.7-2.1,1.7h-2.1V5.2h2.1C217.5,5.2,217.9,6.2,217.9,7"/>
</svg>
