<svg xmlns="http://www.w3.org/2000/svg" width="590.9px" height="263.4px" viewBox="0 0 590.9 263.4">
<path fill="#002147" d="M105.8,140.2c-21.8,0-37.9-14.1-37.9-36.4c0-22,16.5-35.8,37.9-35.8c22.1,0,37.9,14,37.9,36.6
	C143.7,126.3,126.9,140.2,105.8,140.2z M90.6,195.8c-6.6,0-11.2-1.1-12-8.5c-0.5-3.4-0.6-6.9-1.1-10.3c-0.3-2.6-0.8-6.4-4.2-6.6
	l-1.6-0.2v-1.1c3.5,0,7.1,0,10.4-0.2c0.3,6.3,0.6,12.5,1.3,18.6c0.3,4,3.7,5.9,7.4,5.9c3.4,0,6.4-1.1,7.2-4.7c1-4,1.6-9.1,1.6-13.3
	c0-3.2-1.8-5.5-5.1-5.5v-1h13.5v1C95.1,169.9,107.9,195.8,90.6,195.8z M125.4,83.3c-4.7-7.2-11.4-12-20.2-12
	c-18.3,0-24.1,16.4-24.1,31.8c0,7.5,1.3,15.9,5.5,22.2c4.7,7.1,11.7,11.9,20.4,11.9c18.6,0,23.6-16.5,23.6-32.1
	C130.5,97.7,129.3,89.5,125.4,83.3z M139.7,171.4c-1.9,1.9-1.3,20.1-1.3,23.4h-1.3c-5.8-6.6-12.4-12.7-18.3-19.3l-0.2,0.2v1v4
	c0,2.2,0,4.5,0.2,6.7c0.2,5.5,1.6,6.1,6.7,6.6v0.8c-4.7,0-9.3,0-14.1,0V194c1.4-0.2,3.2-0.6,4.2-1.8c1.6-2.1,1.3-13.5,1.3-16.5
	c0-0.8,0-1.4-0.3-2.2c-1.8-2.2-2.9-3-5.8-3.5v-0.8h8.5c2.7,4.3,13.2,14.1,17.2,18.6c0-2.1,0-4.2,0-6.3c0-1.8,0-3.5-0.2-5.3
	c-0.2-5.1-1.9-5.9-6.7-6.3v-0.8c4.5,0,9,0.2,13.6,0v0.8C141.9,170.1,140.5,170.4,139.7,171.4z M283.2,84.7
	c-1.6-11.6-12.8-11.2-22-11.2h-6.4v27.1h7.5c4,0,8,0,11.9-0.6v15.9h-1.6c-0.3-7.9-2.4-10.8-10.3-10.8c-2.6,0-5.1,0.2-7.5,0.2v17.2
	c0,11.9,1.6,11.7,12.8,13.6v1.8H201l-18.5-28.9c-3,3.9-12.8,17-12.8,21.3c0,3.5,4.8,5,7.5,5.8v1.8H148v-2.2
	c12.2-0.8,15.7-5.6,22.2-15.1l10.3-14.6l-11.1-18.1c-4.8-7.9-11.1-14.6-20.9-15.1v-2.2h22.2l17,26.5c2.7-4,10.6-15.4,10.6-19.7
	c0-3.7-4.5-4.2-7.2-4.5v-2.2h28.1v2.2c-11.6,1-16.1,5.9-22,15.1c-2.6,3.9-5.1,7.9-7.7,11.7l14.4,22.5c4.5,6.9,9.8,13.6,18.8,13.6
	c10.3,0,21.3-0.5,21.3-13.6V85c0-10-2.2-11.6-11.9-12.8v-1.8h52l1,14.4L283.2,84.7z M148.2,194.8V194c1.4-0.3,3.5-0.5,4.5-1.8
	c1.1-1.4,1-8.2,1-10.1c0-2.2,0.3-9.5-1.4-10.9c-0.8-0.6-2.9-1.1-4-1.3v-0.8c5.1,0,10.1,0,15.1,0v0.8c-5.9,1-5.5,3.5-5.5,9v5.1
	c0,1.3,0.2,2.4,0.2,3.7c0.2,4.5,0.6,5.6,5.5,6.3v0.8C158.3,194.8,153.3,194.8,148.2,194.8z M193.3,171.5c-2.2,2.1-10.3,21.2-12,24.9
	h-0.2l-9.8-22.2c-1.3-2.9-2.1-3.9-5.3-4.3v-0.8c4.7,0,9.3,0,14.1,0v0.8c-1.4,0.3-4.2,0.6-4.2,2.4c0,2.2,5.6,14.1,6.9,16.7
	c1.3-3,6.4-14.3,6.4-16.5c0-1.8-3.2-2.2-4.5-2.6v-0.8c4,0,8,0,11.9,0v0.8C195.6,170.3,194.3,170.6,193.3,171.5z M221.6,194.8
	c-7.2,0-14.4,0-21.7,0V194c1.3-0.2,3.5-0.5,4.3-1.6c1.3-1.6,1-9,1-11.1c0-1.9,0-3.7,0-5.6c-0.2-4-1-5.3-5.3-5.8v-0.8
	c7.4,0,14.6,0,22,0l-0.2,7.1h-1c-1-6.1-5-5.8-10-5.8h-1.1l-0.2,10.1c1.4-0.2,6.3,0,7.2-0.6c0.6-0.5,1-2.2,1.1-3h1
	c0,3.4-0.2,6.7-0.2,10.1h-0.8c-0.3-3.2-1-4.2-4.2-4.2h-4.2v4.7c0.2,4.2,0,6.1,4.8,6.1c5,0,7.4-3.7,8.7-8l0.8,0.2
	C223.2,188.9,222.7,191.9,221.6,194.8z M252.7,194.7c-5.5-1.3-9-8.7-11.6-13.2c3.2-0.8,5.3-1.9,5.3-5.6c0-4.3-4-5.6-7.7-5.8v12.8
	c0,1.6,0,3.2,0,4.8c0.2,4.8,1,5.8,5.9,6.3v0.8c-5.1,0-10.3,0-15.4,0V194c4.2-0.6,5.1-1.6,5.1-5.8c0-1.8,0-3.5,0-5.1c0-2.6,0-5,0-7.4
	c-0.2-4.3-1-5.1-5.3-5.8v-0.8c3.7-0.2,7.4-0.2,10.9-0.2c4.5,0,11.7,0.8,11.7,6.6c0,3.4-2.6,5.1-5.5,6.3c2.2,4.5,7.4,11.4,12.7,12.4
	v1C256.9,195,254.8,195.1,252.7,194.7z M270.8,195.5c-2.2,0-5.6-1.1-7.5-2.1v-8.2h0.8c0.6,3.9,2.4,9,7.2,9c2.7,0,4.7-1.9,4.7-4.7
	c0-6.7-12.7-5.1-12.7-13.5c0-5,4.8-7.5,9.3-7.5c2.2,0,4.3,0.6,6.3,1.6l-0.3,6.9h-0.8c-0.8-3.2-1.9-7.1-5.9-7.1
	c-2.2,0-4.2,1.9-4.2,4.2c0,6.9,12.8,5.3,12.8,13.8C280.5,193.2,275.6,195.5,270.8,195.5z M286.2,194.8V194c1.3-0.3,3.4-0.5,4.3-1.8
	c1.1-1.4,1-8.2,1-10.1c0-2.2,0.3-9.5-1.4-10.9c-0.8-0.6-2.9-1.1-3.9-1.3v-0.8c5,0,10,0,14.9,0v0.8c-5.9,1-5.5,3.5-5.5,9v5.1
	c0,1.3,0.2,2.4,0.2,3.7c0.2,4.5,0.6,5.6,5.5,6.3v0.8C296.2,194.8,291.2,194.8,286.2,194.8z M329.7,140.2
	c-21.7,0-37.9-14.1-37.9-36.3c0-22.2,16.5-35.8,37.9-35.8c22.2,0,37.9,14,37.9,36.4C367.6,126.4,350.8,140.2,329.7,140.2z
	 M349.3,83.4c-4.7-7.4-11.4-12.2-20.2-12.2c-18.3,0-24.1,16.4-24.1,31.9c0,7.4,1.3,15.7,5.5,22.1c4.7,6.9,11.7,11.7,20.4,11.7
	c18.8,0,23.6-16.4,23.6-32.1C354.5,97.7,353.2,89.5,349.3,83.4z M330.2,177.3c-1.3-6.7-3-6.1-9.3-6.3c0,3.7-0.2,7.4-0.2,11.1
	c0,2.2-0.3,9,1.3,10.6c1.1,0.8,3.2,1.1,4.5,1.3v0.8c-5.3,0-10.6,0-15.7,0V194c1.3-0.2,3.9-0.6,4.7-1.8c1.3-1.4,1-8.3,1-10.3
	c0-3.7,0-7.2,0-10.9c-6.6,0.2-8.3-0.6-9.5,6.4l-1-0.2c0.3-2.7,0.5-5.5,0.6-8.2c2.7,0.2,5.6,0.3,8.3,0.3c2.4,0,5,0,7.4,0
	c2.7,0,5.6,0,8.3-0.3v1.1c0,2.2,0.3,4.7,0.5,7.1H330.2z M359.6,171.2c-1.4,1-2.4,2.6-3.2,3.9c-0.8,1.4-4.8,8.8-4.8,9.6
	c0,5.8-0.8,8.5,5.6,9.3v0.8c-5.3,0-10.4,0-15.7,0V194c6.4-0.8,5.6-3.2,5.6-9c-1.4-2.6-7.1-12.5-9.6-14.1c-0.8-0.5-2.2-0.8-3.2-1
	v-0.8c4.3,0,8.8,0,13.2,0v0.8c-1.1,0.3-3,0.6-3,2.1c0,1.8,5,8.2,6.1,10.3c1.3-2.1,4.5-8,4.5-10.3c0-1.3-1.3-1.8-2.6-2.1v-0.8
	c3.5,0,7.1,0,10.6,0v0.8C361.7,170.3,360.6,170.4,359.6,171.2z M485.9,137.7l-36.9,0.2h-0.5h-2.9c-8.7-0.2-12-0.6-19.4-5.3
	c-12.7-7.7-18.3-16.7-27.3-28.4c7.2,0,17.7-7.9,17.7-15.4c0-10.9-10.8-15.6-20.2-15.6l-1.1,0.2c0,16.7-0.3,33.5-0.3,50.4
	c0,10.6,3.2,10.6,13.2,11.9v2.2h-24.4c0.2-17.5,0.6-34.8,0.6-52.2c0-4.5,0.5-12.2-5.5-12.5c-1.1-0.2-2.2-0.2-3.4-0.2l0.2-1.9
	c8.3-0.3,16.9-0.6,25.2-0.6c10.6,0,27.8,1.9,27.8,15.9c0,9.8-8.3,15.7-17,18.1c6.4,7.4,26,31.1,36.8,31.1c10,0,13-4.5,13-14.1V87.3
	c0-10.4-1.8-13-12.4-14.6v-1.9c9.3,0,18.5-0.3,27.8-0.3c23.1,0,46.9,6.3,46.9,33.7C523.6,123.6,504.2,137.7,485.9,137.7z
	 M396.2,184.4v-1c4.2-0.6,6.1-1.6,6.1-6.3c0-5.3-5-6.9-9.3-7.1v12.4c0,1.8,0,3.5,0,5.3c0.2,5,1,5.8,5.9,6.3v0.8
	c-5.1,0-10.4,0-15.6,0V194c1.1-0.2,3.4-0.5,4.3-1.6c1.1-1.6,1-8.2,1-10.3c0-2.2,0.5-9.5-1.4-10.9c-1-0.6-2.7-1-3.9-1.1v-1
	c3.5,0,7.2-0.2,10.9-0.2c4.5,0,13.2,1.3,13.2,7.2C407.4,182.8,401.5,184.1,396.2,184.4z M435.8,194.7c-5.6-1.3-9.1-8.7-11.7-13.2
	c3.2-0.8,5.5-1.9,5.5-5.6c0-4.3-4.2-5.6-7.9-5.8v12.8c0,1.6,0.2,3.2,0.2,4.8c0,4.8,1,5.8,5.8,6.3v0.8c-5.1,0-10.3,0-15.2,0V194
	c4.2-0.6,5-1.6,5-5.8c0.2-1.8,0.2-3.5,0.2-5.1c0-2.4-0.2-5-0.2-7.4c0-4.3-1-5.1-5.1-5.8v-0.8c3.5-0.2,7.2-0.2,10.9-0.2
	c4.3,0,11.6,0.8,11.6,6.6c0,3.4-2.6,5.1-5.3,6.3c2.2,4.5,7.4,11.4,12.7,12.4v1C440,195,437.9,195.1,435.8,194.7z M466.5,194.8
	c-7.2,0-14.4,0-21.7,0V194c1.3-0.2,3.5-0.5,4.3-1.6c1.3-1.6,1-9,1-11.1c0-1.9,0-3.7,0-5.6c-0.2-4-1-5.3-5.3-5.8v-0.8
	c7.4,0,14.6,0,22,0l-0.2,7.1h-1c-1-6.1-5-5.8-10-5.8h-1.1l-0.2,10.1c1.4-0.2,6.1,0,7.2-0.6c0.6-0.5,1-2.2,1.1-3h1
	c0,3.4-0.2,6.7-0.2,10.1h-0.8c-0.3-3.2-0.8-4.2-4.2-4.2h-4.2v4.7c0.2,4.2,0,6.1,4.8,6.1c5,0,7.4-3.7,8.7-8l0.8,0.2
	C468.1,188.9,467.6,191.9,466.5,194.8z M476.6,73.6c-1.6,0-3.4,0.2-4.8,0.6v49.9c0,8.7,3.2,10.6,11.7,10.6c17.5,0,27-13,27-29.5
	C510.5,85,496,73.6,476.6,73.6z M483,195.5c-2.2,0-5.6-1.1-7.5-2.1v-8.2h0.8c0.6,3.9,2.4,9,7.2,9c2.7,0,4.7-1.9,4.7-4.7
	c0-6.7-12.7-5.1-12.7-13.5c0-5,4.8-7.5,9.3-7.5c2.2,0,4.3,0.6,6.3,1.6l-0.3,6.9h-0.8c-0.8-3.2-1.9-7.1-5.9-7.1
	c-2.2,0-4.2,1.9-4.2,4.2c0,6.9,12.8,5.3,12.8,13.8C492.7,193.2,487.8,195.5,483,195.5z M507.1,195.5c-2.1,0-5.5-1.1-7.5-2.1v-8.2
	h0.8c0.8,3.9,2.4,9,7.2,9c2.7,0,4.8-1.9,4.8-4.7c0-6.7-12.7-5.1-12.7-13.5c0-5,4.7-7.5,9.1-7.5c2.2,0,4.5,0.6,6.4,1.6L515,177h-0.8
	c-0.8-3.2-2.1-7.1-5.9-7.1c-2.4,0-4.3,1.9-4.3,4.2c0,6.9,13,5.3,13,13.8C516.9,193.2,511.9,195.5,507.1,195.5z"/>
</svg>
