<svg xmlns="http://www.w3.org/2000/svg" width="32" height="32" viewBox="0 0 32 32"><path fill="#BC6683" d="M8 12c0-1.656 1.344-3 3-3h13V2.272A2.274 2.274 0 0 0 21.727 0H8L0 8v11.727A2.273 2.273 0 0 0 2.273 22H8V12z"/><path opacity=".4" fill="#FFF" d="M8 0v8H0z"/><path fill="#5A98BA" d="M32 30a2 2 0 0 1-2 2H12a2 2 0 0 1-2-2V13a2 2 0 0 1 2-2h18a2 2 0 0 1 2 2v17z"/><path fill="#FFF" d="M13 14h16v1H13zM13 17h16v1H13zM13 20h9v1h-9zM32 24v8h-8z"/><path opacity=".4" fill="#FFF" d="M24 32v-8h8z"/></svg>