<svg xmlns="http://www.w3.org/2000/svg" width="32" height="32" viewBox="0 0 32 32"><path fill="#BF1717" d="M32 29a2 2 0 0 1-2 2H2a2 2 0 0 1-2-2V3a2 2 0 0 1 2-2h28a2 2 0 0 1 2 2v26z"/><path fill="#FFF" d="M22.621 15.323l-10.5-6.221a.725.725 0 0 0-.748.002.786.786 0 0 0-.373.673v12.445a.79.79 0 0 0 .373.674.718.718 0 0 0 .748 0l10.5-6.22c.233-.138.379-.396.379-.676s-.146-.538-.379-.677z"/><g fill="#FFF"><path d="M2 5h4v2H2zM2 10h4v2H2zM2 15h4v2H2zM2 20h4v2H2zM2 25h4v2H2zM26 5h4v2h-4zM26 10h4v2h-4zM26 15h4v2h-4zM26 20h4v2h-4zM26 25h4v2h-4z"/></g></svg>