<svg xmlns="http://www.w3.org/2000/svg" width="32" height="32" viewBox="0 0 32 32"><path fill="#C7B299" d="M32 30c0 1.1-.9 2-2 2H2c-1.1 0-2-.9-2-2V2C0 .9.9 0 2 0h28c1.1 0 2 .9 2 2v28z"/><path fill="#454547" d="M0 5h32v3H0z"/><path fill="#FFF" d="M0 8h32v8H0z"/><path fill="#B3B3B3" d="M0 8h2v4H0zM4 8h2v4H4zM8 8h2v4H8zM12 8h2v4h-2zM16 8h2v4h-2zM20 8h2v4h-2zM24 8h2v4h-2zM28 8h2v4h-2z"/><path fill="#666" d="M2 12h2v4H2zM6 12h2v4H6zM10 12h2v4h-2zM14 12h2v4h-2zM18 12h2v4h-2zM22 12h2v4h-2zM26 12h2v4h-2zM30 12h2v4h-2z"/><path fill="#454547" d="M0 16h32v3H0z"/><path opacity=".2" fill="#333" d="M0 8h32v8H0z"/><path fill="#736357" d="M6 13c-2.2 0-4 1.8-4 4v10c0 2.2 1.8 4 4 4s4-1.8 4-4V17c0-2.2-1.8-4-4-4zm2 14c0 1.1-.9 2-2 2s-2-.9-2-2v-4c0-1.1.9-2 2-2s2 .9 2 2v4zm-2-8c-1.1 0-2-.9-2-2s.9-2 2-2 2 .9 2 2-.9 2-2 2z"/><path fill="#FFF" d="M6 11c-2.2 0-4 1.8-4 4v10c0 2.2 1.8 4 4 4s4-1.8 4-4V15c0-2.2-1.8-4-4-4zm2 14c0 1.1-.9 2-2 2s-2-.9-2-2v-4c0-1.1.9-2 2-2s2 .9 2 2v4zm-2-8c-1.1 0-2-.9-2-2s.9-2 2-2 2 .9 2 2-.9 2-2 2z"/></svg>