<svg xmlns="http://www.w3.org/2000/svg" width="32" height="32" viewBox="0 0 32 32"><path fill="#E54545" d="M7 12a3 3 0 0 1 3-3h15V2.272A2.274 2.274 0 0 0 22.727 0H8L0 8v14.727A2.273 2.273 0 0 0 2.273 25H7V12z"/><path opacity=".4" fill="#FFF" d="M8 0v8H0z"/><path fill="#BF1717" d="M32 30a2 2 0 0 1-2 2H11a2 2 0 0 1-2-2V13a2 2 0 0 1 2-2h19a2 2 0 0 1 2 2v17z"/><path fill="#FFF" d="M24.967 20.242l-7.875-4.666a.555.555 0 0 0-.562.002.587.587 0 0 0-.279.506v9.334a.59.59 0 0 0 .279.504.54.54 0 0 0 .562 0l7.875-4.664a.594.594 0 0 0 .283-.508.59.59 0 0 0-.283-.508zM28 26h2v2h-2zM28 22h2v2h-2zM28 18h2v2h-2zM28 14h2v2h-2zM11 26h2v2h-2zM11 22h2v2h-2zM11 18h2v2h-2zM11 14h2v2h-2z"/></svg>