<svg xmlns="http://www.w3.org/2000/svg" width="32" height="32" viewBox="0 0 32 32"><path fill="#999" d="M29 2h-6c-1.1 0-2 .9-2 2v1H3c-1.1 0-2 .9-2 2v6h30V4c0-1.1-.9-2-2-2z"/><path fill="#CCC" d="M29 25c0 1.1-.9 2-2 2H5c-1.1 0-2-.9-2-2V10c0-1.1.9-2 2-2h22c1.1 0 2 .9 2 2v15z"/><path fill="#FFF" d="M29 26c0 1.1-.9 2-2 2H5c-1.1 0-2-.9-2-2V11c0-1.1.9-2 2-2h22c1.1 0 2 .9 2 2v15z"/><path fill="#B3B3B3" d="M0 30c0 1.1.9 2 2 2h28c1.1 0 2-.9 2-2V16H0v14z"/><path fill="#B3B3B3" d="M32 13c0-1.1-.9-2-2-2H2c-1.1 0-2 .9-2 2v13h32V13z"/></svg>