<svg xmlns="http://www.w3.org/2000/svg" width="32" height="32" viewBox="0 0 32 32"><circle fill="#EA7F00" cx="20.5" cy="20.5" r="11.5"/><g fill="#FFF"><path d="M19.475 25.975l-3.422-3.422v-4.106l3.422-3.421zM25.631 20.551a6.803 6.803 0 0 1-2.312 5.105l.976.975A8.176 8.176 0 0 0 27 20.551a8.181 8.181 0 0 0-2.82-6.182l-.973.972a6.813 6.813 0 0 1 2.424 5.21z"/><path d="M21.979 20.559a4.402 4.402 0 0 1-.987 2.776l.969.97a5.764 5.764 0 0 0 1.39-3.746 5.759 5.759 0 0 0-1.488-3.861l-.963.963a4.432 4.432 0 0 1 1.079 2.898zM16.053 18.447h-.685c-.755 0-1.368.613-1.368 1.367v1.369c0 .756.613 1.368 1.368 1.368h.685v-4.104z"/></g><path fill="#FF9D33" d="M7 20.5C7 13.043 13.043 7 20.5 7c1.58 0 3.091.286 4.5.784V2.272A2.274 2.274 0 0 0 22.727 0H8L0 8v14.729A2.273 2.273 0 0 0 2.273 25h5.511A13.47 13.47 0 0 1 7 20.5z"/><path opacity=".4" fill="#FFF" d="M8 0v8H0z"/></svg>