<svg xmlns="http://www.w3.org/2000/svg" width="590.9" height="263.4" viewBox="0 0 590.9 263.4"><path fill="#002147" d="M105.8 140.2c-21.8 0-37.9-14.1-37.9-36.4 0-22 16.5-35.8 37.9-35.8 22.1 0 37.9 14 37.9 36.6 0 21.7-16.8 35.6-37.9 35.6zm-15.2 55.6c-6.6 0-11.2-1.1-12-8.5-.5-3.4-.6-6.9-1.1-10.3-.3-2.6-.8-6.4-4.2-6.6l-1.6-.2v-1.1c3.5 0 7.1 0 10.4-.2.3 6.3.6 12.5 1.3 18.6.3 4 3.7 5.9 7.4 5.9 3.4 0 6.4-1.1 7.2-4.7 1-4 1.6-9.1 1.6-13.3 0-3.2-1.8-5.5-5.1-5.5v-1H108v1c-12.9 0-.1 25.9-17.4 25.9zm34.8-112.5c-4.7-7.2-11.4-12-20.2-12-18.3 0-24.1 16.4-24.1 31.8 0 7.5 1.3 15.9 5.5 22.2 4.7 7.1 11.7 11.9 20.4 11.9 18.6 0 23.6-16.5 23.6-32.1-.1-7.4-1.3-15.6-5.2-21.8zm14.3 88.1c-1.9 1.9-1.3 20.1-1.3 23.4h-1.3c-5.8-6.6-12.4-12.7-18.3-19.3l-.2.2v5c0 2.2 0 4.5.2 6.7.2 5.5 1.6 6.1 6.7 6.6v.8h-14.1v-.8c1.4-.2 3.2-.6 4.2-1.8 1.6-2.1 1.3-13.5 1.3-16.5 0-.8 0-1.4-.3-2.2-1.8-2.2-2.9-3-5.8-3.5v-.8h8.5c2.7 4.3 13.2 14.1 17.2 18.6v-6.3c0-1.8 0-3.5-.2-5.3-.2-5.1-1.9-5.9-6.7-6.3v-.8c4.5 0 9 .2 13.6 0v.8c-1.3.2-2.7.5-3.5 1.5zm143.5-86.7c-1.6-11.6-12.8-11.2-22-11.2h-6.4v27.1h7.5c4 0 8 0 11.9-.6v15.9h-1.6c-.3-7.9-2.4-10.8-10.3-10.8-2.6 0-5.1.2-7.5.2v17.2c0 11.9 1.6 11.7 12.8 13.6v1.8H201L182.5 109c-3 3.9-12.8 17-12.8 21.3 0 3.5 4.8 5 7.5 5.8v1.8H148v-2.2c12.2-.8 15.7-5.6 22.2-15.1l10.3-14.6-11.1-18.1c-4.8-7.9-11.1-14.6-20.9-15.1v-2.2h22.2l17 26.5c2.7-4 10.6-15.4 10.6-19.7 0-3.7-4.5-4.2-7.2-4.5v-2.2h28.1v2.2c-11.6 1-16.1 5.9-22 15.1-2.6 3.9-5.1 7.9-7.7 11.7l14.4 22.5c4.5 6.9 9.8 13.6 18.8 13.6 10.3 0 21.3-.5 21.3-13.6V85c0-10-2.2-11.6-11.9-12.8v-1.8h52l1 14.4-1.9-.1zm-135 110.1v-.8c1.4-.3 3.5-.5 4.5-1.8 1.1-1.4 1-8.2 1-10.1 0-2.2.3-9.5-1.4-10.9-.8-.6-2.9-1.1-4-1.3v-.8h15.1v.8c-5.9 1-5.5 3.5-5.5 9v5.1c0 1.3.2 2.4.2 3.7.2 4.5.6 5.6 5.5 6.3v.8h-15.4zm45.1-23.3c-2.2 2.1-10.3 21.2-12 24.9h-.2l-9.8-22.2c-1.3-2.9-2.1-3.9-5.3-4.3v-.8h14.1v.8c-1.4.3-4.2.6-4.2 2.4 0 2.2 5.6 14.1 6.9 16.7 1.3-3 6.4-14.3 6.4-16.5 0-1.8-3.2-2.2-4.5-2.6v-.8h11.9v.8c-1 .4-2.3.7-3.3 1.6zm28.3 23.3h-21.7v-.8c1.3-.2 3.5-.5 4.3-1.6 1.3-1.6 1-9 1-11.1v-5.6c-.2-4-1-5.3-5.3-5.8v-.8h22l-.2 7.1h-1c-1-6.1-5-5.8-10-5.8h-1.1l-.2 10.1c1.4-.2 6.3 0 7.2-.6.6-.5 1-2.2 1.1-3h1c0 3.4-.2 6.7-.2 10.1h-.8c-.3-3.2-1-4.2-4.2-4.2h-4.2v4.7c.2 4.2 0 6.1 4.8 6.1 5 0 7.4-3.7 8.7-8l.8.2c-.4 3.1-.9 6.1-2 9zm31.1-.1c-5.5-1.3-9-8.7-11.6-13.2 3.2-.8 5.3-1.9 5.3-5.6 0-4.3-4-5.6-7.7-5.8v17.6c.2 4.8 1 5.8 5.9 6.3v.8h-15.4v-.8c4.2-.6 5.1-1.6 5.1-5.8v-5.1-7.4c-.2-4.3-1-5.1-5.3-5.8v-.8c3.7-.2 7.4-.2 10.9-.2 4.5 0 11.7.8 11.7 6.6 0 3.4-2.6 5.1-5.5 6.3 2.2 4.5 7.4 11.4 12.7 12.4v1c-1.9-.2-4-.1-6.1-.5zm18.1.8c-2.2 0-5.6-1.1-7.5-2.1v-8.2h.8c.6 3.9 2.4 9 7.2 9 2.7 0 4.7-1.9 4.7-4.7 0-6.7-12.7-5.1-12.7-13.5 0-5 4.8-7.5 9.3-7.5 2.2 0 4.3.6 6.3 1.6l-.3 6.9h-.8c-.8-3.2-1.9-7.1-5.9-7.1-2.2 0-4.2 1.9-4.2 4.2 0 6.9 12.8 5.3 12.8 13.8 0 5.3-4.9 7.6-9.7 7.6zm15.4-.7v-.8c1.3-.3 3.4-.5 4.3-1.8 1.1-1.4 1-8.2 1-10.1 0-2.2.3-9.5-1.4-10.9-.8-.6-2.9-1.1-3.9-1.3v-.8h14.9v.8c-5.9 1-5.5 3.5-5.5 9v5.1c0 1.3.2 2.4.2 3.7.2 4.5.6 5.6 5.5 6.3v.8h-15.1zm43.5-54.6c-21.7 0-37.9-14.1-37.9-36.3 0-22.2 16.5-35.8 37.9-35.8 22.2 0 37.9 14 37.9 36.4 0 21.9-16.8 35.7-37.9 35.7zm19.6-56.8c-4.7-7.4-11.4-12.2-20.2-12.2-18.3 0-24.1 16.4-24.1 31.9 0 7.4 1.3 15.7 5.5 22.1 4.7 6.9 11.7 11.7 20.4 11.7 18.8 0 23.6-16.4 23.6-32.1 0-7.1-1.3-15.3-5.2-21.4zm-19.1 93.9c-1.3-6.7-3-6.1-9.3-6.3 0 3.7-.2 7.4-.2 11.1 0 2.2-.3 9 1.3 10.6 1.1.8 3.2 1.1 4.5 1.3v.8h-15.7v-.8c1.3-.2 3.9-.6 4.7-1.8 1.3-1.4 1-8.3 1-10.3V171c-6.6.2-8.3-.6-9.5 6.4l-1-.2c.3-2.7.5-5.5.6-8.2 2.7.2 5.6.3 8.3.3h7.4c2.7 0 5.6 0 8.3-.3v1.1c0 2.2.3 4.7.5 7.1h-.9zm29.4-6.1c-1.4 1-2.4 2.6-3.2 3.9-.8 1.4-4.8 8.8-4.8 9.6 0 5.8-.8 8.5 5.6 9.3v.8h-15.7v-.8c6.4-.8 5.6-3.2 5.6-9-1.4-2.6-7.1-12.5-9.6-14.1-.8-.5-2.2-.8-3.2-1v-.8h13.2v.8c-1.1.3-3 .6-3 2.1 0 1.8 5 8.2 6.1 10.3 1.3-2.1 4.5-8 4.5-10.3 0-1.3-1.3-1.8-2.6-2.1v-.8h10.6v.8c-1.4.4-2.5.5-3.5 1.3zm126.3-33.5l-36.9.2h-3.4c-8.7-.2-12-.6-19.4-5.3-12.7-7.7-18.3-16.7-27.3-28.4 7.2 0 17.7-7.9 17.7-15.4 0-10.9-10.8-15.6-20.2-15.6l-1.1.2c0 16.7-.3 33.5-.3 50.4 0 10.6 3.2 10.6 13.2 11.9v2.2h-24.4c.2-17.5.6-34.8.6-52.2 0-4.5.5-12.2-5.5-12.5-1.1-.2-2.2-.2-3.4-.2l.2-1.9c8.3-.3 16.9-.6 25.2-.6 10.6 0 27.8 1.9 27.8 15.9 0 9.8-8.3 15.7-17 18.1 6.4 7.4 26 31.1 36.8 31.1 10 0 13-4.5 13-14.1V87.3c0-10.4-1.8-13-12.4-14.6v-1.9c9.3 0 18.5-.3 27.8-.3 23.1 0 46.9 6.3 46.9 33.7-.2 19.4-19.6 33.5-37.9 33.5zm-89.7 46.7v-1c4.2-.6 6.1-1.6 6.1-6.3 0-5.3-5-6.9-9.3-7.1v17.7c.2 5 1 5.8 5.9 6.3v.8h-15.6v-.8c1.1-.2 3.4-.5 4.3-1.6 1.1-1.6 1-8.2 1-10.3 0-2.2.5-9.5-1.4-10.9-1-.6-2.7-1-3.9-1.1v-1c3.5 0 7.2-.2 10.9-.2 4.5 0 13.2 1.3 13.2 7.2 0 6.7-5.9 8-11.2 8.3zm39.6 10.3c-5.6-1.3-9.1-8.7-11.7-13.2 3.2-.8 5.5-1.9 5.5-5.6 0-4.3-4.2-5.6-7.9-5.8v12.8c0 1.6.2 3.2.2 4.8 0 4.8 1 5.8 5.8 6.3v.8h-15.2v-.8c4.2-.6 5-1.6 5-5.8.2-1.8.2-3.5.2-5.1 0-2.4-.2-5-.2-7.4 0-4.3-1-5.1-5.1-5.8v-.8c3.5-.2 7.2-.2 10.9-.2 4.3 0 11.6.8 11.6 6.6 0 3.4-2.6 5.1-5.3 6.3 2.2 4.5 7.4 11.4 12.7 12.4v1c-2.3-.2-4.4-.1-6.5-.5zm30.7.1h-21.7v-.8c1.3-.2 3.5-.5 4.3-1.6 1.3-1.6 1-9 1-11.1v-5.6c-.2-4-1-5.3-5.3-5.8v-.8h22l-.2 7.1h-1c-1-6.1-5-5.8-10-5.8h-1.1l-.2 10.1c1.4-.2 6.1 0 7.2-.6.6-.5 1-2.2 1.1-3h1c0 3.4-.2 6.7-.2 10.1h-.8c-.3-3.2-.8-4.2-4.2-4.2h-4.2v4.7c.2 4.2 0 6.1 4.8 6.1 5 0 7.4-3.7 8.7-8l.8.2c-.4 3.1-.9 6.1-2 9zm10.1-121.2c-1.6 0-3.4.2-4.8.6v49.9c0 8.7 3.2 10.6 11.7 10.6 17.5 0 27-13 27-29.5 0-20.2-14.5-31.6-33.9-31.6zm6.4 121.9c-2.2 0-5.6-1.1-7.5-2.1v-8.2h.8c.6 3.9 2.4 9 7.2 9 2.7 0 4.7-1.9 4.7-4.7 0-6.7-12.7-5.1-12.7-13.5 0-5 4.8-7.5 9.3-7.5 2.2 0 4.3.6 6.3 1.6l-.3 6.9h-.8c-.8-3.2-1.9-7.1-5.9-7.1-2.2 0-4.2 1.9-4.2 4.2 0 6.9 12.8 5.3 12.8 13.8 0 5.3-4.9 7.6-9.7 7.6zm24.1 0c-2.1 0-5.5-1.1-7.5-2.1v-8.2h.8c.8 3.9 2.4 9 7.2 9 2.7 0 4.8-1.9 4.8-4.7 0-6.7-12.7-5.1-12.7-13.5 0-5 4.7-7.5 9.1-7.5 2.2 0 4.5.6 6.4 1.6l-.2 6.9h-.8c-.8-3.2-2.1-7.1-5.9-7.1-2.4 0-4.3 1.9-4.3 4.2 0 6.9 13 5.3 13 13.8-.1 5.3-5.1 7.6-9.9 7.6z"/></svg>