<svg xmlns="http://www.w3.org/2000/svg" width="32" height="32" viewBox="0 0 32 32"><path fill="#BC6683" d="M30 0H2a2 2 0 0 0-2 2v28a2 2 0 0 0 2 2h22l8-8V2a2 2 0 0 0-2-2z"/><path opacity=".4" fill="#FFF" d="M24 32v-8h8z"/><g fill="#FFF"><path d="M5.832 15.869v3.51H3.891V9.701h3.702c1.112 0 1.987.283 2.625.851s.957 1.314.957 2.24-.319 1.671-.957 2.233-1.513.844-2.625.844H5.832zm0-1.495h1.761c.541 0 .951-.147 1.23-.442.279-.294.418-.67.418-1.126 0-.466-.139-.85-.416-1.153s-.688-.456-1.233-.456h-1.76v3.177zM12.565 19.379V9.701h3.376c1.184 0 2.158.378 2.925 1.134.767.755 1.149 1.725 1.149 2.907v1.603c0 1.188-.383 2.156-1.149 2.907s-1.741 1.127-2.925 1.127h-3.376zm1.941-8.183v6.693h1.436c.638 0 1.152-.237 1.542-.714s.585-1.087.585-1.831v-1.615c0-.74-.195-1.348-.585-1.821-.39-.475-.904-.712-1.542-.712h-1.436zM27.228 15.357h-3.716v4.021h-1.94V9.701h6.335v1.495h-4.395v2.666h3.716v1.495z"/></g></svg>