<svg xmlns="http://www.w3.org/2000/svg" width="32" height="32" viewBox="0 0 32 32"><circle fill="#EA7F00" cx="16" cy="16" r="16"/><path fill="#FFF" d="M23 16.074c0 2.972-1.316 5.63-3.381 7.462l1.426 1.425A11.942 11.942 0 0 0 25 16.074c0-3.609-1.6-6.837-4.122-9.035L19.457 8.46C21.619 10.294 23 13.022 23 16.074z"/><path fill="#FFF" d="M17.662 16.084a6.448 6.448 0 0 1-1.446 4.061l1.417 1.416a8.416 8.416 0 0 0 2.029-5.477c0-2.175-.832-4.143-2.176-5.644l-1.408 1.408a6.456 6.456 0 0 1 1.584 4.236zM9 13H8a2 2 0 0 0-2 2v2a2 2 0 0 0 2 2h1l5 5V8l-5 5z"/></svg>