<svg xmlns="http://www.w3.org/2000/svg" width="220.1" height="18" viewBox="0 0 220.1 18"><path fill="#72759B" d="M74.2 13.7v-.5l-1.7-.7V0l-3.4.8v.4l1.8.5v10.9l-1.7.7v.5l5-.1zm8.8-5c0-.3 0-.6-.1-.9 0-.2 0-.5-.1-.6 0-.2-.1-.3-.1-.5 0-.1-.1-.3-.1-.4-.3-.6-.7-1.1-1.2-1.5-.6-.4-1.2-.5-2-.5-.6 0-1.1.1-1.6.3-.5.2-.9.5-1.3.9-.5.4-.8 1-1.1 1.6-.3.7-.4 1.4-.4 2.2 0 .7.1 1.3.3 1.9.2.6.5 1.1.9 1.5.4.4.8.7 1.4 1 .5.2 1.1.3 1.7.3.3 0 .7 0 1-.1.4 0 .8-.1 1.3-.3.1 0 .3-.1.4-.1.1 0 .3-.1.4-.1.2 0 .3-.1.5-.1l-.1-.5c-.4.1-.8.1-1.2.2-.4 0-.8.1-1 .1-.7 0-1.3-.1-1.7-.2-.4-.2-.8-.4-1.2-.8-.4-.4-.6-.8-.7-1.3-.1-.5-.2-1.1-.2-1.8H83v-.3zm-6.2-.5c.1-1 .4-1.8.8-2.3.4-.6.9-.9 1.6-.9.4 0 .6.1.9.2.2.1.4.3.6.5.2.2.3.5.4.8.1.3.1.8.1 1.3l-4.4.4zm16.2 5v-.4l-1.1-.3c-.2-.1-.3-.1-.4-.1-.1 0-.1-.1-.2-.1 0 0-.1-.2-.1-.5V6.5c0-.4-.1-.8-.2-1 0-.3-.2-.5-.4-.7-.2-.2-.5-.3-.9-.4-.3-.1-.7-.1-1.1-.1-.3 0-.6 0-1 .1-.3.1-.7.1-1.1.2-.1 0-.3.1-.5.1s-.4.1-.7.2v1.7h1l.8-1.6h1.2c.2 0 .4.1.5.1.4.1.6.3.7.5.1.2.2.5.2 1v2.2l-.6.1c-.5 0-1 .1-1.5.2s-.9.1-1.2.2c-1.4.3-2.1 1.1-2.1 2.2 0 .7.2 1.3.7 1.7.5.4 1.1.6 1.9.6h.5c.2 0 .3-.1.4-.1s.3-.1.4-.2c.1-.1.3-.1.5-.2s.4-.2.5-.2c.1 0 .3-.1.4-.2.1.6.4.9 1 .9h.4c.2 0 .4-.1.7-.2l1.3-.4zm-3.3-.7c-.4.1-.7.2-.9.2s-.5.1-.8.1c-.6 0-1.1-.2-1.4-.4-.4-.3-.5-.7-.5-1.2 0-.8.4-1.2 1.3-1.5.4-.1.8-.2 1.1-.2.4-.1.8-.1 1.2-.2v3.2zm11.1-5.9V4.5c-.1 0-.3-.1-.5-.1s-.3-.1-.5-.1c-.3 0-.7.1-1.1.3-.5.2-1.1.5-1.9.9V4.2l-3.2.7v.4l1.7.5v6.8l-1.7.7v.5h5.3v-.5l-2.1-.7V5.8c.2-.1.5-.2.8-.2.3-.1.5-.1.8-.1h.5l.6 1h1.3v.1zm11.5 7.1v-.5l-1.7-.7V7.3c0-.5 0-.9-.1-1.3-.1-.3-.3-.6-.5-.9-.3-.3-.6-.5-.9-.6s-.7-.2-1.1-.2h-.6c-.2 0-.3 0-.4.1-.1 0-.3.1-.5.1-.2.1-.4.1-.7.3-.2.1-.4.1-.5.2-.2.1-.4.2-.6.2v-1l-3.2.7v.4l1.7.5v6.8l-1.7.7v.5h4.7v-.5l-1.5-.7V5.7c.2 0 .5-.1.9-.1h.9c.4 0 .7 0 1 .1.3 0 .6.1.8.2.6.3.9.9.9 1.8v5l-1.6.7v.5h4.7v-.2zM115.4 0c-.7 0-1.1.3-1.1 1 0 .6.4 1 1.1 1 .7 0 1.1-.3 1.1-1s-.4-1-1.1-1m2.4 13.7v-.5l-1.7-.7V4.2l-3.1.7v.4l1.7.5v6.8l-1.7.7v.5l4.8-.1zm11.7 0v-.5l-1.7-.7V7.3c0-.5 0-.9-.1-1.3-.1-.3-.3-.6-.5-.9-.3-.3-.6-.5-.9-.6s-.7-.2-1.1-.2h-.6c-.2 0-.3 0-.4.1-.1 0-.3.1-.5.1-.2.1-.4.1-.7.3-.2.1-.4.1-.5.2-.2.1-.4.2-.6.2v-1l-3.2.7v.4l1.7.5v6.8l-1.6.7v.5h4.7v-.5l-1.5-.7V5.7c.2 0 .5-.1.9-.1h.9c.4 0 .7 0 1 .1.3 0 .6.1.8.2.6.3.9.9.9 1.8v5l-1.6.7v.5h4.6v-.2zm10.1-8V4.1l-3.4.6c-.3-.2-.7-.3-1-.4-.3-.1-.7-.1-1.1-.1-.5 0-.9.1-1.4.3-.4.2-.8.4-1.1.7-.3.3-.6.6-.8 1-.2.4-.3.8-.3 1.3 0 .4.1.8.3 1.2.2.4.5.7.8 1 .2.1.3.2.5.3s.4.2.7.3l-.6.6c-.2.2-.4.4-.6.7-.3.4-.5.7-.5 1 0 .4.3.8.8 1.2-.5.2-.9.5-1.3.7-.5.4-.8.8-.8 1.2 0 .3.1.6.3.8.2.3.5.5.8.7.4.3.9.5 1.4.6.5.1 1.1.2 1.8.2.5 0 1.1-.1 1.7-.3s1.1-.4 1.5-.8c1-.7 1.5-1.6 1.5-2.6 0-.5-.1-.9-.4-1.2-.2-.2-.4-.4-.7-.4-.3-.1-.7-.1-1.2-.1H134c-.5 0-.9-.1-1.2-.2-.2-.1-.3-.3-.3-.5 0-.1.1-.3.2-.6.2-.3.4-.5.6-.8.2.1.4.1.6.1h.5c.5 0 1-.1 1.4-.2.4-.2.8-.4 1.1-.6.3-.3.6-.6.7-1 .2-.4.3-.8.3-1.2 0-.2 0-.5-.1-.7-.1-.2-.2-.5-.3-.7-.1-.2-.2-.4-.4-.5-.2-.2-.3-.3-.6-.5l3.1.5zm-3.4 2.9c-.1.3-.2.5-.4.7-.2.2-.4.4-.6.5-.2.1-.5.2-.8.2-.2 0-.4 0-.5-.1-.2-.1-.3-.1-.5-.2-.4-.2-.6-.5-.8-.9-.2-.4-.3-.9-.3-1.4 0-.3 0-.6.1-.9.1-.3.2-.5.4-.7.2-.2.4-.4.6-.5.2-.1.5-.2.8-.2.2 0 .5 0 .8.1.3.1.5.3.7.5.2.2.4.6.6.9.1.4.2.8.2 1.2-.1.2-.2.5-.3.8m1.2 7.3c-.2.3-.4.5-.7.7-.3.2-.7.4-1.1.5-.4.1-.9.2-1.3.2s-.8 0-1.2-.1c-.4-.1-.7-.2-.9-.4-.3-.2-.5-.4-.6-.6-.2-.2-.2-.5-.2-.7 0-.1 0-.2.1-.4.1-.1.1-.3.2-.4.1-.1.2-.3.3-.4.1-.1.2-.2.4-.3.2.1.3.1.4.1h4.1c.2 0 .4.1.5.2.1.1.3.2.3.4.1.2.1.3.1.5-.1.1-.2.4-.4.7"/><path fill="#1B254F" d="M6.1 11.3c0-1.3-1.1-2-2.6-2.9-1.6-.9-2-1.3-2-2C1.4 5.7 2 5 3 5c.9 0 1.5.4 2.1 1.2l.8-.6C5.3 4.7 4.4 4 3.1 4 1.4 4 .3 5.1.3 6.5c0 1.1.7 1.7 2.2 2.6 1.9 1.1 2.4 1.5 2.4 2.2 0 1-.9 1.5-1.7 1.5-1.1 0-2-.7-2.4-1.4L0 12c.4.8 1.4 1.9 3.1 1.9 1.5 0 3-.9 3-2.6m10.4 2.4V4.2h-1.1v4.1H9.6V4.2H8.5v9.5h1.1V9.3h5.8v4.4h1.1zm11.4 0l-4.3-9.5h-1.1l-4.3 9.5h1.2l1-2.3h5l1 2.3h1.5zm-2.7-3.3H21l2.1-4.7 2.1 4.7zm11.2-3.3c0-1.3-1-2.9-3.1-2.9h-3.6v9.5h1.1v-3.5h2.5c2 0 3.1-1.5 3.1-3.1m-1.1 0c0 1.2-.7 2-2 2h-2.5v-4h2.4c1.5.1 2.1 1.1 2.1 2m4.5-2.9h-1.1v9.5h1.1V4.2zm11.6 9.5V4.2h-1.1V12L44 4.2h-1.1v9.5H44V5.9l6.3 7.8h1.1zm11.4-7.5V5c-1.3-.7-2.5-1-3.7-1-2.9 0-5.2 2.4-5.2 4.9 0 3 2.4 4.9 5 4.9 1.4 0 2.5-.4 3.8-1V8.5h-3.9v1h2.8v2.7c-.9.4-1.7.6-2.7.6-2.2 0-3.9-1.6-3.9-3.9C55 7 56.5 5 59 5c1.5 0 3 .7 3.8 1.2m88.6-1v-1h-7v1h2.9v8.5h1.1V5.2h3zM162 9c0-2.9-2.5-4.9-5-4.9s-5 2-5 4.9c0 2.9 2.5 4.9 5 4.9s5-2.1 5-4.9m-1.1 0c0 2.2-1.7 3.9-3.8 3.9-2.1 0-3.8-1.7-3.8-3.9s1.7-4 3.7-4c2.1 0 3.9 1.8 3.9 4m12.2-2.8V5c-1.3-.7-2.5-1-3.7-1-2.9 0-5.1 2.4-5.1 4.9 0 3 2.4 4.9 5 4.9 1.4 0 2.5-.4 3.8-1V8.5h-3.9v1h2.8v2.7c-.9.4-1.7.6-2.7.6-2.2 0-3.9-1.6-3.9-3.9 0-1.9 1.5-3.9 4-3.9 1.4 0 2.8.7 3.7 1.2m9.3 7.5v-1h-5.2V9.3h4.3v-1h-4.3v-3h5.2v-1H176v9.5l6.4-.1zm8.3-8.5v-1h-7v1h2.9v8.5h1.1V5.2h3zm9.9 8.5V4.2h-1.1v4.1h-5.8V4.2h-1.1v9.5h1.1V9.3h5.8v4.4h1.1zm9.5 0v-1h-5.2V9.3h4.3v-1h-4.3v-3h5.2v-1h-6.3v9.5l6.3-.1zm9.9 0l-3.1-4.1c1.4-.3 2.2-1.4 2.2-2.6s-.8-2.8-3.2-2.8h-3.2v9.5h1.1v-4h1.9l3 4h1.3zM217.9 7c0 .9-.6 1.7-2.1 1.7h-2.1V5.2h2.1c1.7 0 2.1 1 2.1 1.8"/></svg>